<?xml version="1.0" standalone="no"?><!DOCTYPE svg PUBLIC "-//W3C//DTD SVG 1.1//EN" "http://www.w3.org/Graphics/SVG/1.1/DTD/svg11.dtd"><svg t="1631706344726" class="icon" viewBox="0 0 1024 1024" version="1.1" xmlns="http://www.w3.org/2000/svg" p-id="8165" xmlns:xlink="http://www.w3.org/1999/xlink" width="32" height="32"><defs><style type="text/css"></style></defs><path d="M825.6 844.8c102.4-83.2 166.4-211.2 166.4-352 0-70.4-19.2-134.4-44.8-192l0 0c57.6-51.2 57.6-140.8 0-198.4-25.6-25.6-64-38.4-102.4-38.4l0 0c-32 0-64 12.8-89.6 32-70.4-38.4-153.6-64-243.2-64-89.6 0-172.8 25.6-243.2 64C243.2 76.8 211.2 64 179.2 64 140.8 64 102.4 76.8 76.8 102.4c-57.6 51.2-57.6 140.8 0 198.4l0 0c-25.6 57.6-44.8 121.6-44.8 192 0 140.8 64 268.8 172.8 352l-96 89.6c-12.8 12.8-12.8 32 0 44.8 6.4 6.4 12.8 6.4 25.6 6.4s19.2 0 25.6-6.4L256 883.2C326.4 928 416 960 512 960c96 0 185.6-25.6 262.4-76.8l102.4 102.4c6.4 6.4 12.8 6.4 25.6 6.4 6.4 0 19.2 0 25.6-6.4 12.8-12.8 12.8-32 0-44.8L825.6 844.8zM902.4 147.2c25.6 25.6 32 64 12.8 96-25.6-44.8-64-76.8-102.4-108.8C838.4 121.6 883.2 121.6 902.4 147.2zM121.6 147.2c25.6-25.6 64-25.6 96-12.8C172.8 166.4 134.4 204.8 108.8 243.2 89.6 211.2 89.6 172.8 121.6 147.2zM512 896c-230.4 0-416-179.2-416-403.2 0-224 185.6-403.2 416-403.2s416 179.2 416 403.2C928 716.8 742.4 896 512 896z" p-id="8166"></path><path d="M652.8 499.2 544 499.2 544 320c0-12.8-12.8-25.6-25.6-25.6C505.6 294.4 492.8 300.8 492.8 320l0 204.8c0 12.8 12.8 25.6 25.6 25.6l134.4 0c12.8 0 25.6-12.8 25.6-25.6C684.8 512 672 499.2 652.8 499.2z" p-id="8167"></path></svg>